<?xml version="1.0" encoding="UTF-8" standalone="no"?>
<!-- Created with Inkscape (http://www.inkscape.org/) -->

<svg
   width="300mm"
   height="60mm"
   viewBox="0 0 300 60"
   version="1.1"
   id="svg12"
   sodipodi:docname="CSC vector.svg"
   inkscape:version="1.1.1 (3bf5ae0d25, 2021-09-20)"
   xmlns:inkscape="http://www.inkscape.org/namespaces/inkscape"
   xmlns:sodipodi="http://sodipodi.sourceforge.net/DTD/sodipodi-0.dtd"
   xmlns="http://www.w3.org/2000/svg"
   xmlns:svg="http://www.w3.org/2000/svg">
  <sodipodi:namedview
     id="namedview14"
     pagecolor="#ffffff"
     bordercolor="#666666"
     borderopacity="1.0"
     inkscape:pageshadow="2"
     inkscape:pageopacity="0.0"
     inkscape:pagecheckerboard="0"
     inkscape:document-units="mm"
     showgrid="false"
     width="250mm"
     inkscape:zoom="0.63250561"
     inkscape:cx="962.0468"
     inkscape:cy="324.1078"
     inkscape:window-width="1500"
     inkscape:window-height="938"
     inkscape:window-x="-6"
     inkscape:window-y="-6"
     inkscape:window-maximized="1"
     inkscape:current-layer="layer1" />
  <defs
     id="defs9" />
  <g
     inkscape:label="Layer 1"
     inkscape:groupmode="layer"
     id="layer1">
    <path
       style="fill:#000000;stroke-width:0.132292"
       d="m 98.398805,54.605338 c -5.951959,-0.870344 -9.819026,-2.777081 -13.54463,-6.678459 -3.55298,-3.720607 -5.723883,-8.238417 -6.572921,-13.678734 -0.440538,-2.822798 -0.268745,-8.186593 0.338963,-10.583333 0.672269,-2.651353 0.871834,-3.267087 1.629327,-5.027083 1.480723,-3.440381 3.766791,-6.746202 6.000795,-8.6775885 0.497021,-0.429696 0.933441,-0.813807 0.969821,-0.853582 0.231736,-0.253356 1.819832,-1.383178 2.668108,-1.898179 7.156012,-4.344519 15.770502,-4.821791 23.050982,-1.277102 0.734,0.35737 1.56507,0.743143 1.8468,0.857275 1.01762,0.412232 1.98582,0.173728 2.72849,-0.672125 0.46671,-0.531559 1.05874,-1.74181 1.05874,-2.164324 0,-0.290407 0.40893,-0.441488 1.00928,-0.37288 l 0.37979,0.0434 0.0876,1.389062 c 0.0482,0.763984 0.15349,2.282031 0.23401,3.373437 0.0805,1.091407 0.17517,2.4010945 0.21032,2.9104175 0.0352,0.509323 0.18688,2.704979 0.33717,4.879234 0.17062,2.46852 0.22652,3.999919 0.14883,4.077606 -0.0684,0.06842 -0.3175,0.105192 -0.55351,0.0817 -0.41904,-0.04171 -0.44107,-0.07682 -0.93986,-1.497917 -0.88917,-2.533361 -1.58616,-4.017201 -2.73417,-5.820832 -2.31814,-3.6420515 -5.89918,-6.0099545 -10.21801,-6.7564915 -1.90311,-0.328965 -5.43477,-0.202248 -7.16314,0.257016 -2.925801,0.777449 -5.059525,1.973138 -6.992068,3.9181935 -0.951843,0.958003 -2.513542,2.967282 -2.513542,3.233916 0,0.04413 -0.14016,0.302286 -0.311467,0.573692 -0.264877,0.419652 -0.517257,0.963992 -1.271505,2.742422 -1.831013,4.317324 -2.573861,12.619096 -1.6482,18.419642 1.034225,6.480856 4.018539,11.2302 8.721276,13.879348 4.977316,2.803825 11.977136,3.065246 16.944386,0.632822 2.32931,-1.14064 4.64995,-3.210951 7.2933,-6.506552 0.83163,-1.036836 1.57027,-1.885157 1.64141,-1.885157 0.20255,0 0.90996,0.392249 0.90996,0.50456 0,0.200977 -1.55313,2.641924 -2.50102,3.930688 -1.30988,1.780909 -3.86073,4.289313 -5.42218,5.331956 -2.65376,1.772027 -5.39854,2.789084 -8.80164,3.261393 -1.57881,0.219117 -5.67289,0.249761 -7.021508,0.05255 z m 38.991975,-8.219433 0.0341,-8.367448 h 0.59531 0.59531 l 0.15146,0.661459 c 0.0833,0.363802 0.28119,1.227005 0.43974,1.918229 1.11792,4.873689 2.94157,7.643676 6.35412,9.651346 1.77104,1.041942 3.30315,1.574358 5.54472,1.926815 4.63064,0.728103 8.55575,-0.731319 10.76563,-4.002846 0.81005,-1.199221 1.08655,-2.238717 1.08248,-4.069586 -0.003,-1.425121 -0.0421,-1.687085 -0.38091,-2.561098 -0.76141,-1.964415 -2.3881,-3.891412 -4.44422,-5.264635 -0.90114,-0.601854 -3.83021,-2.358172 -5.4901,-3.291959 -0.3638,-0.204659 -1.09204,-0.629521 -1.61832,-0.944135 -0.52627,-0.314615 -0.98628,-0.572027 -1.02222,-0.572027 -0.15162,0 -5.01842,-3.018311 -6.35529,-3.941455 -1.96594,-1.357523 -4.41243,-3.811277 -5.20948,-5.224932 -2.01719,-3.577769 -2.08379,-8.082916 -0.17151,-11.603403 1.23469,-2.2730675 3.89599,-4.7574725 6.1623,-5.7527055 3.30598,-1.4518 6.98576,-1.763938 10.83887,-0.919412 1.08224,0.237206 3.22815,0.91289 4.05639,1.277229 0.32742,0.144035 0.71437,0.313437 0.85989,0.376449 0.92712,0.401454 2.10232,0.672628 2.55298,0.58909 1.07369,-0.199032 1.36132,-0.518483 2.12295,-2.357828 0.14052,-0.339363 0.20464,-0.367592 0.75117,-0.330729 l 0.59754,0.0403 v 8.3343745 8.334374 h -0.62543 -0.62542 l -0.17366,-0.926042 c -0.90518,-4.826922 -2.0497,-7.367522 -4.30317,-9.5521415 -1.85461,-1.797929 -4.03939,-2.955152 -6.67178,-3.53385 -1.27393,-0.280059 -3.78857,-0.276896 -4.91734,0.0062 -2.39151,0.59977 -4.53203,2.323565 -5.60168,4.5111375 l -0.56866,1.160331 v 1.653646 c 0,1.645412 0.002,1.658756 0.50153,2.679881 1.00122,2.04868 3.10835,3.845671 7.89899,6.736359 0.9095,0.548799 2.33825,1.373284 3.175,1.83219 0.83674,0.458905 1.69994,0.934335 1.91823,1.056509 0.21828,0.122174 0.75406,0.420547 1.19062,0.663051 7.24779,4.026041 9.76311,6.315084 11.28658,10.271272 1.76142,4.57415 0.60924,9.718328 -3.00294,13.407079 -2.98576,3.049049 -6.77983,4.497124 -11.77943,4.495833 -2.91098,-7.94e-4 -4.7892,-0.3345 -8.14588,-1.44746 -1.76362,-0.584757 -4.24993,-1.197842 -4.85776,-1.197842 -1.16377,0 -1.78893,0.582134 -2.10755,1.962526 l -0.15773,0.683308 h -0.63972 -0.63972 z m 65.98145,8.114376 c -3.45428,-0.539639 -6.77958,-1.762073 -9.11601,-3.351192 -1.18532,-0.806194 -3.05711,-2.375792 -3.79629,-3.183387 -4.52207,-4.94061 -6.79676,-10.970428 -6.79676,-18.017036 0,-4.554564 0.92279,-8.64411 2.83812,-12.577713 3.00348,-6.16842 7.99834,-10.5509455 14.3574,-12.5972915 6.02913,-1.940175 12.22636,-1.534304 17.70492,1.159539 1.91743,0.942804 2.23616,1.062863 2.82172,1.062863 1.30266,0 2.23208,-1.014697 2.93842,-3.208073 0.0563,-0.17484 0.2193,-0.23151 0.66591,-0.23151 h 0.59137 l 0.0704,0.562239 c 0.0387,0.309232 0.13329,1.604037 0.21011,2.877344 0.0768,1.273307 0.19705,3.0592455 0.26719,3.9687505 0.11147,1.445657 0.48876,7.314361 0.56556,8.797394 0.0265,0.510845 0.0119,0.530646 -0.41936,0.571876 -0.24572,0.02349 -0.49589,-0.0064 -0.55592,-0.06645 -0.06,-0.06004 -0.35612,-0.823395 -0.65795,-1.696355 -1.58721,-4.590517 -4.03941,-8.100073 -7.00446,-10.0246855 -1.73726,-1.127652 -2.94803,-1.62595 -5.42396,-2.232254 -0.977,-0.23925 -5.73866,-0.244192 -6.74688,-0.007 -1.91991,0.451665 -2.79679,0.766662 -4.36562,1.568241 -2.93108,1.497594 -5.15829,3.9211305 -6.85099,7.4548585 -1.28966,2.692329 -1.95093,5.099433 -2.48946,9.061978 -0.33353,2.453986 -0.34022,8.131003 -0.012,10.252604 0.63649,4.1156 1.80588,7.327223 3.61268,9.921874 0.72385,1.039489 2.47654,2.849795 3.49092,3.605678 2.95914,2.205063 6.84826,3.40888 10.99546,3.40347 3.87367,-0.0051 6.9597,-0.916424 9.77433,-2.886564 1.5703,-1.099157 4.61412,-4.332761 6.44722,-6.849192 0.24125,-0.331193 0.28316,-0.342063 0.73889,-0.19166 0.26572,0.0877 0.51727,0.214708 0.55902,0.282252 0.0801,0.12967 -1.01747,1.982801 -2.03144,3.429766 -1.59483,2.275851 -4.04414,4.728234 -6.04228,6.049866 -1.01236,0.669605 -3.38037,1.887634 -3.66982,1.887634 -0.10011,0 -0.23856,0.05148 -0.30769,0.114396 -0.1735,0.157934 -2.40265,0.762306 -3.76369,1.020426 -1.75733,0.33327 -6.65132,0.371582 -8.59896,0.06732 z M 8.0659821,35.086327 c -0.04869,-0.04869 -0.08853,-0.197669 -0.08853,-0.331064 0,-0.234352 0.8661883,-0.242535 25.6737839,-0.242535 H 59.32502 l -0.04227,0.297657 -0.04227,0.297656 -25.54298,0.03341 C 19.648861,35.159821 8.1146811,35.135051 8.0659901,35.086331 Z M 241.91951,34.982421 c -0.0406,-0.105842 -0.0353,-0.254822 0.0118,-0.331065 0.0593,-0.09587 7.98179,-0.138628 25.68557,-0.138628 h 25.59982 l -0.0423,0.297657 -0.0423,0.297656 -25.56939,0.03341 c -22.27327,0.0291 -25.57891,0.0086 -25.64323,-0.159029 z M 7.9774521,32.26377 c 0,-0.263674 0.08819,-0.264583 25.6645829,-0.264583 25.576388,0 25.664583,9.26e-4 25.664583,0.264583 0,0.263675 -0.08819,0.264584 -25.664583,0.264584 -25.5763879,0 -25.6645829,-9.27e-4 -25.6645829,-0.264584 z M 241.91353,32.32102 c -0.0437,-0.114031 -0.0239,-0.263011 0.0442,-0.331066 0.0762,-0.07616 9.93724,-0.110892 25.64907,-0.09033 l 25.52534,0.03341 0.0423,0.297656 0.0423,0.297657 h -25.61178 c -23.13222,0 -25.6195,-0.02007 -25.69136,-0.207331 z"
       id="path192" />
  </g>
</svg>
