<?xml version="1.0" encoding="UTF-8" standalone="no"?>
<!-- Created with Inkscape (http://www.inkscape.org/) -->

<svg
   width="175mm"
   height="40mm"
   viewBox="0 0 175 40"
   version="1.1"
   id="svg12"
   inkscape:version="1.1.1 (3bf5ae0d25, 2021-09-20)"
   sodipodi:docname="CSC Construction Services Consulting Vector.svg"
   xmlns:inkscape="http://www.inkscape.org/namespaces/inkscape"
   xmlns:sodipodi="http://sodipodi.sourceforge.net/DTD/sodipodi-0.dtd"
   xmlns="http://www.w3.org/2000/svg"
   xmlns:svg="http://www.w3.org/2000/svg">
  <sodipodi:namedview
     id="namedview14"
     pagecolor="#ffffff"
     bordercolor="#666666"
     borderopacity="1.0"
     inkscape:pageshadow="2"
     inkscape:pageopacity="0.0"
     inkscape:pagecheckerboard="0"
     inkscape:document-units="mm"
     showgrid="false"
     width="10mm"
     inkscape:zoom="0.63250561"
     inkscape:cx="117.78552"
     inkscape:cy="-93.279805"
     inkscape:window-width="1500"
     inkscape:window-height="938"
     inkscape:window-x="-6"
     inkscape:window-y="-6"
     inkscape:window-maximized="1"
     inkscape:current-layer="layer1" />
  <defs
     id="defs9" />
  <g
     inkscape:label="Layer 1"
     inkscape:groupmode="layer"
     id="layer1">
    <path
       style="fill:#000000;stroke-width:0.0846667"
       d="m 6.4084942,35.633787 c -0.74036,-0.26382 -1.38205,-0.93661 -1.607357,-1.68525 -0.157827,-0.52442 -0.149557,-1.51269 0.01675,-2.00076 0.174383,-0.51178 0.789575,-1.19198 1.337766,-1.47911 0.395134,-0.20697 0.516446,-0.22665 1.406109,-0.22815 0.88967,-0.002 1.014061,0.0182 1.441913,0.22832 0.257536,0.12649 0.579644,0.34624 0.715796,0.48836 l 0.247549,0.25838 -0.185509,0.18551 -0.185508,0.18551 -0.276287,-0.26736 c -0.711678,-0.68867 -1.877411,-0.85973 -2.795004,-0.41013 -0.59749,0.29276 -0.922861,0.65128 -1.155603,1.27334 -0.22489,0.60107 -0.22489,1.01512 0,1.61619 0.232752,0.62209 0.569988,0.99421 1.161255,1.28138 0.908318,0.44116 1.975837,0.28721 2.755548,-0.39739 l 0.318547,-0.27969 0.181281,0.18128 0.18128,0.18129 -0.247549,0.25838 c -0.136152,0.14211 -0.457781,0.36124 -0.714734,0.48696 -0.620304,0.30349 -1.91724,0.3649 -2.596236,0.12294 z m 7.0485098,0.008 c -0.590144,-0.20332 -1.241322,-0.82961 -1.542139,-1.4832 -0.512275,-1.11301 -0.22424,-2.45562 0.706273,-3.29211 0.588363,-0.52892 1.150596,-0.7017 2.122952,-0.65243 0.524493,0.0266 0.830665,0.0877 1.072666,0.21431 0.531645,0.27802 0.99932,0.72628 1.272697,1.21984 0.233864,0.42224 0.251304,0.51542 0.251304,1.34272 0,0.76754 -0.02682,0.93927 -0.196334,1.2569 -0.25328,0.4746 -0.831532,1.05061 -1.298439,1.29341 -0.495257,0.25754 -1.776782,0.31149 -2.38898,0.10057 z m 2.105752,-0.56509 c 0.817324,-0.39848 1.258789,-1.12997 1.258789,-2.08578 0,-0.94808 -0.43508,-1.66132 -1.271575,-2.08455 -1.132165,-0.57282 -2.457238,-0.13267 -3.058906,1.01608 -0.191045,0.36476 -0.227106,0.54084 -0.227489,1.11081 -5.02e-4,0.73946 0.09292,0.9933 0.562248,1.52784 0.254211,0.28953 0.71839,0.57755 1.1706,0.72634 0.34542,0.11366 1.112702,0.0104 1.566333,-0.21074 z m 10.413999,0.59524 c -0.288676,-0.13111 -0.889,-0.76092 -0.889,-0.93266 0,-0.0626 0.08521,-0.15183 0.189357,-0.19831 0.165603,-0.0739 0.235299,-0.0334 0.55562,0.32289 0.241435,0.26853 0.458549,0.42469 0.637027,0.45817 0.569539,0.10685 1.157996,-0.34624 1.157996,-0.89161 0,-0.44425 -0.267324,-0.79303 -1.146296,-1.49559 -0.891953,-0.71294 -1.181045,-1.15186 -1.100384,-1.67066 0.184592,-1.18728 1.789663,-1.4716 2.581963,-0.45736 l 0.178803,0.22889 -0.219274,0.14367 c -0.215807,0.14141 -0.224319,0.13874 -0.538808,-0.16834 -0.202845,-0.19808 -0.431641,-0.33022 -0.626509,-0.36184 -0.265634,-0.0431 -0.343112,-0.0137 -0.57534,0.21856 -0.23355,0.23354 -0.261889,0.30905 -0.218424,0.58193 0.05365,0.33681 0.306674,0.60531 1.344163,1.42636 0.861441,0.68174 1.116605,1.41542 0.745355,2.14313 -0.258032,0.50578 -0.616214,0.71564 -1.270021,0.7441 -0.335566,0.0146 -0.651883,-0.0212 -0.806228,-0.0913 z m 14.645762,-0.005 c -0.290325,-0.1265 -0.775174,-0.6451 -0.893099,-0.95526 -0.04344,-0.11428 -0.07899,-1.15779 -0.07899,-2.31893 v -2.11116 h 0.254 0.254 l 0.0021,1.88383 c 0.0011,1.03611 0.03683,2.03624 0.07936,2.2225 0.09799,0.42908 0.566584,0.85485 1.026285,0.93252 0.498276,0.0842 1.063752,-0.21376 1.270741,-0.66955 0.139665,-0.30754 0.158085,-0.57953 0.159731,-2.35847 l 0.0019,-2.01083 h 0.296334 0.296333 l -0.0016,1.7145 c -0.0011,0.94298 -0.03673,1.95677 -0.07954,2.25288 -0.147886,1.02291 -0.749572,1.53895 -1.78699,1.53264 -0.299622,-0.002 -0.659778,-0.0534 -0.800344,-0.11467 z m 6.39336,0.0389 c -0.669936,-0.20378 -1.238766,-0.67431 -1.626884,-1.34572 -0.265535,-0.45936 -0.277569,-0.51871 -0.277569,-1.36917 0,-0.85482 0.01093,-0.90793 0.284454,-1.38121 0.34417,-0.59553 0.966465,-1.10885 1.556779,-1.28416 0.541658,-0.16085 1.605365,-0.1662 2.122162,-0.0107 0.475956,0.14324 1.243605,0.68946 1.243605,0.88488 0,0.078 -0.08069,0.19215 -0.179305,0.25373 -0.16006,0.1 -0.207767,0.0849 -0.4445,-0.13984 -0.484513,-0.46007 -0.956043,-0.64219 -1.662195,-0.642 -0.775655,1.6e-4 -1.326615,0.24871 -1.837041,0.82858 -0.385419,0.43786 -0.533821,0.85552 -0.533152,1.50051 7.94e-4,0.67297 0.140256,1.0636 0.531723,1.48828 0.538562,0.58428 1.068475,0.82096 1.83847,0.82117 0.706554,1.7e-4 1.177711,-0.18195 1.663145,-0.64293 0.258587,-0.24556 0.272301,-0.2487 0.483026,-0.11063 0.173278,0.11354 0.198834,0.17044 0.127111,0.28303 -0.156046,0.24496 -0.775946,0.65718 -1.208863,0.80387 -0.43656,0.14793 -1.677331,0.18506 -2.080966,0.0623 z m 13.45258,-0.033 c -0.771382,-0.2876 -1.30842,-0.78741 -1.653452,-1.53885 -0.605065,-1.31775 -0.02535,-2.98088 1.279019,-3.66941 0.387189,-0.20438 0.513035,-0.22526 1.358067,-0.22526 0.846042,0 0.970595,0.0207 1.36004,0.22626 0.485294,0.25612 0.953741,0.73702 1.239793,1.27276 0.167028,0.31282 0.194167,0.48791 0.194167,1.25265 0,0.99269 -0.08865,1.24446 -0.679437,1.92955 -0.503711,0.58412 -1.030539,0.80654 -1.987563,0.83912 -0.530111,0.0181 -0.908759,-0.0116 -1.110634,-0.0868 z m 2.009855,-0.59581 c 0.549724,-0.27034 0.974248,-0.76448 1.15824,-1.34818 0.189613,-0.60152 0.181483,-0.96965 -0.03414,-1.54596 -0.230745,-0.61672 -0.554341,-0.97654 -1.148627,-1.27722 -1.13066,-0.57206 -2.457096,-0.13084 -3.05689,1.01685 -0.310089,0.59334 -0.322972,1.51843 -0.02903,2.08447 0.336143,0.6473 0.808842,1.04192 1.53389,1.28053 0.356942,0.11747 1.115661,0.0162 1.576555,-0.21049 z m 13.193558,0.49047 c -0.183944,-0.11962 -0.438761,-0.36319 -0.566253,-0.54127 l -0.23181,-0.32378 0.212911,-0.1395 c 0.210497,-0.13792 0.217577,-0.13443 0.624789,0.30843 0.384779,0.41847 0.437984,0.44794 0.808572,0.44794 0.349949,0 0.43084,-0.0373 0.686517,-0.31625 0.558268,-0.60918 0.355735,-1.08982 -0.870627,-2.06614 -0.618847,-0.49267 -0.842859,-0.7283 -0.97381,-1.02434 -0.394284,-0.89134 0.174903,-1.71457 1.185969,-1.71528 0.519774,-2.7e-4 0.794282,0.12302 1.19013,0.53494 l 0.284168,0.29571 -0.225232,0.14757 c -0.223528,0.14647 -0.227642,0.14522 -0.544767,-0.16444 -0.202845,-0.19807 -0.431641,-0.33021 -0.626509,-0.36183 -0.265634,-0.0431 -0.343112,-0.0137 -0.575339,0.21855 -0.233551,0.23355 -0.26189,0.30905 -0.218424,0.58194 0.05362,0.33662 0.30703,0.60565 1.34149,1.42417 0.92175,0.72934 1.145196,1.53862 0.636892,2.30672 -0.277627,0.41953 -0.676664,0.60435 -1.304795,0.60435 -0.393036,0 -0.570667,-0.0463 -0.833872,-0.21749 z m 24.63581,0.0433 c -0.57353,-0.22065 -1.066417,-0.65733 -1.406973,-1.24652 -0.2683,-0.46416 -0.27995,-0.52133 -0.27995,-1.37332 0,-0.85482 0.01093,-0.90793 0.284453,-1.38121 0.34417,-0.59553 0.966463,-1.10885 1.55678,-1.28416 0.54166,-0.16085 1.60536,-0.1662 2.12216,-0.0107 0.47596,0.14324 1.24361,0.68946 1.24361,0.88488 0,0.078 -0.0807,0.19215 -0.17931,0.25374 -0.16005,0.1 -0.20776,0.0849 -0.4445,-0.13985 -0.48451,-0.46007 -0.95604,-0.64219 -1.66219,-0.642 -0.77566,1.7e-4 -1.32662,0.24871 -1.837042,0.82858 -0.385419,0.43786 -0.533824,0.85552 -0.533154,1.50051 7.94e-4,0.66331 0.126849,1.01927 0.519253,1.46507 0.523993,0.59529 1.069563,0.84417 1.850943,0.84438 0.70655,1.7e-4 1.17771,-0.18195 1.66314,-0.64293 0.25952,-0.24644 0.27161,-0.24916 0.48545,-0.10904 0.19611,0.12849 0.20702,0.16123 0.10319,0.30948 -0.18714,0.26717 -0.73849,0.6334 -1.17524,0.78064 -0.57869,0.19509 -1.75561,0.17595 -2.31062,-0.0376 z m 10.52934,-0.0171 c -0.17292,-0.10466 -0.43015,-0.34769 -0.57161,-0.54006 l -0.25721,-0.34974 0.21585,-0.14144 c 0.21414,-0.1403 0.21891,-0.13804 0.59807,0.28368 0.44363,0.49342 0.79213,0.60885 1.20054,0.39765 0.4158,-0.21501 0.63321,-0.55189 0.58578,-0.90763 -0.0608,-0.45579 -0.26292,-0.70436 -1.14199,-1.4042 -0.61312,-0.48811 -0.83688,-0.72385 -0.96762,-1.01941 -0.39429,-0.89135 0.1749,-1.71458 1.18597,-1.71529 0.51977,-2.7e-4 0.79427,0.12302 1.19013,0.53494 l 0.28416,0.29571 -0.22523,0.14758 c -0.22353,0.14646 -0.22764,0.14522 -0.54476,-0.16445 -0.20285,-0.19807 -0.43165,-0.33021 -0.62652,-0.36183 -0.26563,-0.0431 -0.34311,-0.0137 -0.57533,0.21855 -0.23356,0.23355 -0.26189,0.30905 -0.21843,0.58194 0.0538,0.33793 0.33914,0.64146 1.31138,1.39512 0.93191,0.7224 1.1739,1.56981 0.667,2.33577 -0.27716,0.41883 -0.67695,0.60446 -1.30057,0.60392 -0.36318,-2.6e-4 -0.57903,-0.0512 -0.80961,-0.19078 z m 8.68614,0.0405 c -0.74036,-0.26382 -1.38205,-0.93661 -1.60735,-1.68525 -0.15476,-0.51419 -0.15025,-1.41151 0.01,-1.9504 0.16137,-0.54339 0.75827,-1.2223 1.34472,-1.52947 0.39513,-0.20697 0.51645,-0.22665 1.40611,-0.22815 0.88967,-0.002 1.01406,0.0182 1.44191,0.22832 0.25753,0.12648 0.57965,0.34624 0.7158,0.48836 l 0.24755,0.25838 -0.18552,0.18551 -0.1855,0.18551 -0.27629,-0.26736 c -0.71286,-0.68982 -1.87719,-0.85979 -2.79841,-0.40852 -0.26956,0.13205 -0.60372,0.37781 -0.74255,0.54613 -0.31403,0.38071 -0.58766,1.09483 -0.58766,1.53369 0,0.4414 0.27416,1.15363 0.59274,1.53987 0.8124,0.98492 2.47155,1.05703 3.50208,0.15222 l 0.31854,-0.27969 0.18128,0.18128 0.18129,0.18128 -0.24755,0.25839 c -0.13615,0.14211 -0.45778,0.36124 -0.71474,0.48695 -0.6203,0.30349 -1.91724,0.36491 -2.59623,0.12295 z m 7.24926,0.0762 c -0.43532,-0.14245 -0.89867,-0.42915 -1.20207,-0.74379 -1.30502,-1.35337 -0.9357,-3.61106 0.73641,-4.50183 0.38467,-0.20492 0.50839,-0.22551 1.35466,-0.22551 0.79385,0 0.98133,0.027 1.27,0.1831 0.54007,0.29201 1.00178,0.73671 1.27271,1.22585 0.23385,0.42223 0.25129,0.51541 0.25129,1.34271 0,0.75046 -0.0285,0.94178 -0.1831,1.22767 -0.2931,0.54208 -0.7377,1.00256 -1.22585,1.26959 -0.39881,0.21815 -0.55105,0.25081 -1.25805,0.26983 -0.44238,0.0119 -0.89958,-0.01 -1.016,-0.0476 z m 1.905,-0.63369 c 0.52574,-0.25632 0.82413,-0.56585 1.07207,-1.11211 0.39371,-0.86742 0.16725,-2.08788 -0.49537,-2.66967 -1.19901,-1.05274 -2.93944,-0.75695 -3.63618,0.61799 -0.69042,1.36248 -0.0205,2.87648 1.49315,3.37453 0.34542,0.11366 1.11271,0.0104 1.56633,-0.21074 z m 10.414,0.59524 c -0.28814,-0.13087 -0.889,-0.76079 -0.889,-0.93201 0,-0.0622 0.0911,-0.15465 0.20236,-0.20536 0.18161,-0.0827 0.22977,-0.0581 0.46951,0.24022 0.5253,0.65366 1.10917,0.74007 1.61084,0.2384 0.19574,-0.19574 0.25729,-0.33376 0.25729,-0.57693 0,-0.45291 -0.26399,-0.79675 -1.16178,-1.51321 -1.1289,-0.90088 -1.33809,-1.43152 -0.86812,-2.20206 0.43914,-0.71996 1.83038,-0.68721 2.35926,0.0555 0.16762,0.23539 0.16844,0.25006 0.0216,0.38292 -0.21171,0.1916 -0.25985,0.17884 -0.60802,-0.16114 -0.19129,-0.18678 -0.42189,-0.31802 -0.61348,-0.34911 -0.26563,-0.0431 -0.34311,-0.0137 -0.57533,0.21856 -0.23109,0.23109 -0.26155,0.31044 -0.21922,0.57127 0.0606,0.37338 0.1699,0.49623 1.06069,1.19214 0.842,0.65779 1.19704,1.15964 1.19704,1.69205 0,0.46121 -0.25194,0.96509 -0.61003,1.22008 -0.33629,0.23946 -1.23401,0.31016 -1.63364,0.12866 z m 5.16467,-0.047 c -0.39326,-0.1815 -0.66593,-0.45493 -0.81139,-0.81364 -0.0672,-0.16569 -0.11683,-0.9973 -0.1428,-2.39183 l -0.0398,-2.13784 h 0.3065 0.30649 v 2.05317 c 0,1.78509 0.0195,2.09186 0.14817,2.3495 0.15912,0.31853 0.74483,0.67733 1.10568,0.67733 0.32269,0 0.76886,-0.25332 1.01563,-0.57664 l 0.22805,-0.2988 0.0277,-2.10228 0.0277,-2.10228 h 0.25496 0.25496 l -0.0332,2.13784 c -0.0227,1.4589 -0.0671,2.2185 -0.13987,2.39183 -0.14544,0.34644 -0.50563,0.7166 -0.83398,0.85709 -0.39251,0.16795 -1.26594,0.14529 -1.67488,-0.0435 z m 23.66433,0.0195 c -1.15256,-0.40067 -1.88488,-1.42589 -1.8954,-2.65346 -0.005,-0.5614 0.0287,-0.70326 0.28881,-1.22388 0.53354,-1.06774 1.39978,-1.57012 2.70726,-1.57012 0.96474,0 1.64665,0.23812 2.26531,0.79105 l 0.19097,0.17069 -0.1839,0.19576 -0.18391,0.19576 -0.28346,-0.21621 c -0.90852,-0.69296 -1.95247,-0.85861 -2.82101,-0.44763 -0.92852,0.43935 -1.38368,1.11506 -1.38915,2.06224 -0.003,0.48147 0.0388,0.67353 0.22176,1.02363 0.72772,1.39273 2.62059,1.81082 3.71637,0.82085 0.35577,-0.32142 0.52177,-0.58471 0.61575,-0.97664 l 0.0558,-0.23284 h -0.89624 -0.89623 l 0.0268,-0.23283 0.0268,-0.23283 1.17611,-0.0236 1.17611,-0.0236 -0.0567,0.4826 c -0.11727,0.99777 -0.73617,1.81748 -1.57738,2.08916 -0.56534,0.18259 -1.76194,0.18362 -2.28446,0.002 z M 19.16109,32.984797 c 0,-2.25772 0.01958,-2.71093 0.116131,-2.68817 0.105082,0.0248 1.932378,2.07495 3.101203,3.47948 0.256116,0.30777 0.494241,0.56182 0.529166,0.56457 0.03492,0.003 0.0635,-0.90941 0.0635,-2.02701 v -2.032 h 0.254 0.254001 v 2.70933 c 0,1.60864 -0.03191,2.70934 -0.07853,2.70934 -0.04319,0 -0.167017,-0.10878 -0.275166,-0.24172 -0.10815,-0.13294 -0.901487,-1.05361 -1.76297,-2.04592 l -1.566334,-1.8042 -0.02267,2.04592 -0.02267,2.04592 h -0.294828 -0.294828 z m 11.66411,0.23904 -0.02244,-2.4765 -0.5715,-0.025 c -0.543518,-0.0238 -0.5715,-0.0352 -0.5715,-0.23284 v -0.2078 h 1.481667 1.481669 v 0.21167 c 0,0.20562 -0.01693,0.21166 -0.592669,0.21166 H 31.43776 v 2.49767 2.49767 h -0.295055 -0.295053 z m 3.448891,-0.23284 v -2.70933 h 1.146228 c 1.020299,0 1.187728,0.0209 1.524,0.1905 0.4353,0.21951 0.758772,0.7519 0.758772,1.24883 0,0.16653 -0.08572,0.47279 -0.1905,0.68056 -0.229269,0.45466 -0.753962,0.75878 -1.309105,0.75878 -0.199684,0 -0.363062,0.0195 -0.363062,0.0435 0,0.0239 0.371475,0.52299 0.8255,1.10905 1.199529,1.54838 1.116121,1.38746 0.719164,1.38746 -0.328414,0 -0.357534,-0.0247 -0.962826,-0.81498 -1.078072,-1.40764 -1.349537,-1.72502 -1.475489,-1.72502 -0.101248,0 -0.122349,0.21902 -0.122349,1.27 v 1.27 h -0.275166 -0.275167 z m 2.08266,-0.35116 c 0.499467,-0.14965 0.71134,-0.42742 0.71134,-0.9326 0,-0.36914 -0.03461,-0.45438 -0.269796,-0.66452 -0.301103,-0.26904 -0.735732,-0.36461 -1.465871,-0.32234 l -0.465666,0.027 -0.02429,0.88328 c -0.01336,0.4858 -0.005,0.93347 0.01852,0.99483 0.05455,0.14214 1.037804,0.15161 1.495782,0.0144 z m 16.58634,0.56283 v -2.49767 h -0.592667 c -0.575733,0 -0.592666,-0.006 -0.592666,-0.21166 v -0.21167 h 1.524 1.523999 v 0.20796 c 0,0.19942 -0.02519,0.20898 -0.613833,0.23283 l -0.613833,0.0249 -0.02244,2.4765 -0.02244,2.4765 h -0.295072 -0.295055 z m 3.217333,-0.21167 v -2.70933 h 0.296333 0.296334 v 2.70933 2.70934 h -0.296334 -0.296333 z m 9.948333,0 c 0,-1.77961 0.02954,-2.70933 0.08609,-2.70933 0.08173,0 3.438755,3.8267 3.498135,3.98755 0.01553,0.042 0.06315,0.0764 0.105834,0.0764 0.04488,0 0.07761,-0.85693 0.07761,-2.032 v -2.032 h 0.254 0.254 v 2.70933 c 0,1.49014 -0.02922,2.70934 -0.06493,2.70934 -0.03571,0 -0.700127,-0.73343 -1.476478,-1.62984 -0.776349,-0.8964 -1.583621,-1.82033 -1.793939,-2.05316 l -0.382394,-0.42334 -0.0038,2.05317 -0.0038,2.05317 h -0.275167 -0.275166 z m 13.800666,0 v -2.70933 h 1.5875 1.5875 v 0.20946 0.20946 l -1.291166,0.0234 -1.291167,0.0234 -0.0241,0.86562 -0.0241,0.86561 1.294104,0.0234 1.294103,0.0234 v 0.21166 0.21167 l -1.293609,0.0234 -1.293608,0.0234 0.0236,1.11961 0.0236,1.11962 1.291166,0.0234 1.291167,0.0234 v 0.20946 0.20946 h -1.5875 -1.5875 z m 4.953,-0.008 v -2.7171 l 1.262322,0.0289 1.262327,0.0289 0.325173,0.2622 c 0.190524,0.15363 0.371949,0.39905 0.438132,0.59267 0.140919,0.4123 0.07298,1.09813 -0.137457,1.3876 -0.209108,0.28765 -0.831477,0.59387 -1.206989,0.59387 -0.16864,0 -0.331057,0.0245 -0.360926,0.0543 -0.02986,0.0299 0.09088,0.22989 0.268324,0.4445 0.37052,0.44812 1.389372,1.77783 1.482913,1.93536 0.04595,0.0774 -0.02675,0.10584 -0.270444,0.10584 -0.32544,0 -0.350266,-0.0224 -1.054632,-0.9525 -0.984665,-1.30022 -1.28072,-1.62883 -1.400659,-1.5547 -0.06953,0.043 -0.100084,0.43515 -0.100084,1.28452 v 1.22268 h -0.254 -0.254 z m 2.313517,-0.41901 c 0.657402,-0.31372 0.62843,-1.41514 -0.04469,-1.69908 -0.164608,-0.0695 -0.574479,-0.11777 -0.998829,-0.11777 h -0.719666 l -0.02429,0.88327 c -0.01336,0.48581 -0.0032,0.93811 0.02246,1.00513 0.03742,0.0975 0.194445,0.11394 0.786299,0.0822 0.406747,-0.0218 0.847164,-0.091 0.97872,-0.15378 z m 4.654661,2.52223 c -0.148947,-0.33755 -0.429895,-0.99474 -0.624316,-1.4604 -0.194421,-0.46567 -0.437277,-1.03717 -0.539681,-1.27 -0.102397,-0.23284 -0.237416,-0.55669 -0.300035,-0.71967 -0.06263,-0.16298 -0.142198,-0.33443 -0.176842,-0.381 -0.03464,-0.0466 -0.1397,-0.28682 -0.233469,-0.5339 l -0.170494,-0.44923 0.306231,0.0259 c 0.30503,0.0258 0.307856,0.0297 0.718288,0.99956 1.06662,2.52036 1.279144,3.01029 1.332516,3.07198 0.03156,0.0365 0.126587,-0.0969 0.211177,-0.29634 0.08458,-0.19945 0.221996,-0.51504 0.305342,-0.7013 0.08335,-0.18627 0.322284,-0.73872 0.530945,-1.22767 0.834761,-1.95602 0.779,-1.86267 1.112563,-1.86267 h 0.298534 l -0.136974,0.3175 c -0.07535,0.17463 -0.194099,0.45085 -0.263906,0.61384 -0.06982,0.16298 -0.19475,0.44873 -0.277649,0.635 -0.08289,0.18626 -0.406323,0.92921 -0.718735,1.651 -0.861203,1.98968 -0.960679,2.20134 -1.03449,2.20124 -0.0375,-5e-5 -0.190052,-0.27628 -0.339005,-0.61383 z m 4.377156,-2.09542 v -2.70933 h 0.254 0.254 v 2.70933 2.70934 h -0.254 -0.254 z m 9.482663,0 v -2.70933 h 1.60867 1.60867 v 0.21167 0.21166 h -1.31234 -1.31233 v 0.889 0.889 h 1.27 1.27 v 0.254 0.254 h -1.27 -1.27 v 1.143 1.143 h 1.27 1.27 v 0.21167 0.21167 h -1.56633 -1.56634 z m 26.58767,-0.007 c -0.006,-2.32091 0.0112,-2.7119 0.11523,-2.68816 0.0966,0.022 2.15221,2.32707 3.36947,3.77836 0.12505,0.14909 0.24888,0.27108 0.27516,0.27108 0.0263,0 0.0478,-0.9144 0.0478,-2.032 v -2.032 h 0.254 0.254 v 2.70933 c 0,1.49014 -0.0307,2.70934 -0.0682,2.70934 -0.0375,0 -0.86617,-0.92053 -1.8415,-2.04561 l -1.7733,-2.0456 -0.0227,2.0456 -0.0227,2.04561 h -0.29041 -0.29041 z m 16.76167,0.007 v -2.70933 h 0.29633 0.29633 v 2.49767 2.49766 h 1.05834 1.05833 v 0.21167 0.21167 h -1.35467 -1.35466 z m 4.97544,0.23284 -0.0224,-2.4765 -0.61383,-0.0249 c -0.58864,-0.0239 -0.61383,-0.0334 -0.61383,-0.23284 v -0.20796 h 1.524 1.52399 v 0.21167 c 0,0.20562 -0.0169,0.21166 -0.59266,0.21166 h -0.59267 v 2.49767 2.49767 h -0.29505 -0.29506 z m 3.23722,-0.23284 v -2.70933 h 0.254 0.254 v 2.70933 2.70934 h -0.254 -0.254 z m 2.58234,-0.002 c 0,-2.00723 0.0254,-2.70541 0.0978,-2.68816 0.0788,0.0188 2.37634,2.60835 3.3469,3.77229 0.12506,0.14997 0.24888,0.27267 0.27517,0.27267 0.0263,0 0.0478,-0.9144 0.0478,-2.032 v -2.032 h 0.254 0.254 v 2.70933 c 0,1.49014 -0.0308,2.70934 -0.0684,2.70934 -0.0376,0 -0.86632,-0.92158 -1.8415,-2.04795 l -1.77305,-2.04794 -0.0227,2.04794 -0.0227,2.04795 h -0.27366 -0.27366 v -2.7115 z m -96.689336,-7.66934 c -2.400459,-0.35273 -4.068836,-1.15339 -5.558306,-2.66743 -1.443238,-1.467052 -2.426761,-3.437762 -2.741789,-5.493792 -0.161703,-1.05536 -0.158377,-3.044801 0.0068,-4.064001 0.251482,-1.55182 1.014881,-3.3950798 1.944669,-4.6954898 0.507508,-0.7098 1.744904,-1.89593 2.453968,-2.35229 1.791679,-1.15315 3.541485,-1.67289 5.632064,-1.67289 1.551035,0 2.909723,0.32711 4.383019,1.05523 0.333234,0.16469 0.730763,0.29929 0.883396,0.29912 0.528852,-5.8e-4 0.924457,-0.39958 1.195988,-1.20618 0.03226,-0.0958 0.137075,-0.14817 0.296672,-0.14817 0.240644,0 0.248113,0.0132 0.299717,0.52917 0.02911,0.29104 0.09027,1.11971 0.135919,1.8415 0.31935,5.0497298 0.315214,4.5059998 0.03401,4.4717898 -0.191222,-0.0233 -0.245584,-0.1048 -0.413025,-0.61946 -0.83094,-2.5540598 -2.338105,-4.2406998 -4.404434,-4.9289298 -0.616837,-0.20545 -0.798325,-0.22605 -2.032,-0.23067 -1.5523,-0.006 -2.027931,0.0896 -3.132667,0.62825 -2.607455,1.27138 -4.028628,4.3967398 -4.042664,8.8903808 -0.005,1.59503 0.06928,2.29248 0.374266,3.51497 0.578986,2.32079 1.917658,4.001192 3.908671,4.906462 0.95345,0.43351 1.581566,0.56682 2.900688,0.61561 2.809426,0.10391 4.285758,-0.64217 6.442157,-3.255632 0.706917,-0.85675 0.716955,-0.86478 0.917554,-0.73334 l 0.202817,0.13289 -0.350875,0.56401 c -1.498129,2.408132 -3.249187,3.795232 -5.529268,4.380022 -0.690787,0.17717 -1.089943,0.22189 -2.198679,0.24633 -0.745067,0.0164 -1.468967,0.0131 -1.608667,-0.007 z m 15.874999,-3.372192 v -3.43437 h 0.211667 c 0.116417,0 0.239686,-0.002 0.273931,-0.005 0.03424,-0.003 0.08731,0.10194 0.117914,0.23284 0.03061,0.1309 0.140655,0.59994 0.244555,1.04232 0.466545,1.98647 1.332386,3.120582 3.010802,3.943682 2.050306,1.00547 4.431802,0.80065 5.724805,-0.49236 1.034635,-1.03464 1.254091,-2.395532 0.596646,-3.699902 -0.524756,-1.04111 -1.163769,-1.53919 -4.295986,-3.34848 -2.504215,-1.44652 -3.689321,-2.236481 -4.424776,-2.949421 -1.115954,-1.08179 -1.538507,-1.96601 -1.605944,-3.3605698 -0.0694,-1.4352 0.310666,-2.5447 1.21344,-3.5423 1.227125,-1.35602 2.642344,-1.95997 4.592693,-1.95997 1.108456,0 2.037538,0.18497 3.25518,0.64807 0.549232,0.20889 1.124354,0.4002 1.278059,0.42514 0.432189,0.0701 0.758283,-0.14625 0.973159,-0.64574 0.161917,-0.3764 0.213971,-0.42748 0.435543,-0.42748 h 0.251646 v 3.429 3.4289998 h -0.252384 c -0.194691,0 -0.260569,-0.0435 -0.288187,-0.1905 -0.388672,-2.0686098 -0.872601,-3.1792398 -1.778746,-4.0822798 -1.682215,-1.67644 -4.40364,-2.08992 -6.007325,-0.91271 -0.933182,0.68502 -1.381304,1.59056 -1.306028,2.63914 0.06843,0.9532 0.546841,1.6370598 1.795486,2.5665698 0.602623,0.44861 1.792111,1.1902 2.84185,1.77178 0.20955,0.1161 0.81915,0.4533 1.354667,0.74935 1.138994,0.629661 2.402009,1.436231 3.01807,1.927361 0.76068,0.60642 1.407126,1.56939 1.774471,2.64329 0.246888,0.72177 0.225213,2.21529 -0.04408,3.03748 -0.571508,1.744862 -2.14938,3.182702 -4.118253,3.752792 -0.591989,0.17141 -0.844931,0.19367 -2.111875,0.18588 -1.410666,-0.009 -1.460415,-0.0152 -2.497667,-0.32919 -2.666473,-0.80707 -3.019181,-0.86209 -3.325045,-0.5187 -0.09876,0.11088 -0.220702,0.34901 -0.270978,0.52917 -0.07927,0.28404 -0.127683,0.33109 -0.364361,0.3541 l -0.272949,0.0265 z m 27.231737,3.336112 c -3.99541,-0.62885 -6.84463,-3.270422 -7.896309,-7.320812 -0.229463,-0.88373 -0.241858,-1.02437 -0.242459,-2.75167 -7.94e-4,-1.904191 0.03695,-2.208831 0.437422,-3.542891 1.329664,-4.4293598 5.133016,-7.2944398 9.683246,-7.2944398 1.54269,0 2.63249,0.25447 4.26022,0.99476 0.69686,0.31694 0.89278,0.37201 1.18533,0.33319 0.40908,-0.0543 0.71693,-0.36641 0.9416,-0.95467 0.12193,-0.31928 0.17709,-0.37328 0.38123,-0.37328 0.27745,0 0.27376,-0.0202 0.42614,2.32833 0.0483,0.74507 0.12493,1.87117 0.1702,2.50246 0.0453,0.63128 0.0823,1.3456598 0.0823,1.5874998 0,0.40863 -0.0145,0.43971 -0.20477,0.43971 -0.17772,0 -0.22965,-0.0755 -0.39329,-0.5715 -0.90991,-2.7582298 -2.49762,-4.4724398 -4.69361,-5.0675598 -0.82226,-0.22283 -2.88816,-0.22793 -3.683,-0.009 -2.13358,0.58744 -3.66661,2.11597 -4.51841,4.5051498 -0.80166,2.24852 -0.99111,5.393151 -0.47692,7.916321 0.52301,2.56646 1.89563,4.411642 3.99035,5.364132 0.97157,0.44177 1.59316,0.57461 2.91828,0.62362 1.84033,0.0681 3.11559,-0.26166 4.30124,-1.11213 0.59682,-0.4281 1.66476,-1.511082 2.37091,-2.404292 0.44868,-0.56755 0.50327,-0.60979 0.65658,-0.508 0.0919,0.0611 0.16474,0.14912 0.16175,0.19568 -0.0123,0.19159 -0.87353,1.48375 -1.39567,2.094152 -1.2521,1.46373 -2.68783,2.38385 -4.40977,2.82611 -0.69419,0.17829 -1.09064,0.22285 -2.20134,0.24742 -0.74506,0.0165 -1.57813,-0.005 -1.85126,-0.0482 z M 25.991196,17.271455 c -0.03123,-0.0312 -0.05677,-0.0885 -0.05677,-0.12733 0,-0.0388 4.746625,-0.0706 10.548059,-0.0706 8.400812,0 10.540873,0.0215 10.512779,0.10583 -0.02792,0.0838 -2.217084,0.11032 -10.491282,0.12734 -5.750803,0.0118 -10.481556,-0.004 -10.512782,-0.0353 z m 95.955224,-0.0706 c 0,-0.11265 1.21628,-0.12733 10.54806,-0.12733 8.40081,0 10.54088,0.0215 10.51278,0.10583 -0.0279,0.0838 -2.22844,0.11032 -10.54806,0.12733 -9.30991,0.019 -10.51278,0.007 -10.51278,-0.10583 z m -95.990834,-1.07983 c 0.02792,-0.0837 2.22844,-0.11032 10.548059,-0.12733 9.309912,-0.019 10.512779,-0.007 10.512779,0.10583 0,0.11265 -1.216276,0.12733 -10.548056,0.12733 -8.400814,0 -10.540876,-0.0215 -10.512782,-0.10583 z m 95.990834,-0.0212 c 0,-0.11221 1.22767,-0.127 10.541,-0.127 9.31334,0 10.541,0.0148 10.541,0.127 0,0.11221 -1.22766,0.127 -10.541,0.127 -9.31333,0 -10.541,-0.0148 -10.541,-0.127 z"
       id="path117" />
  </g>
</svg>
